# AST/ASF file generated using VICON BodyLanguage
# -----------------------------------------------
:version 1.10
:name VICON
:units
  mass 1.0
  length 0.45
  angle deg
:documentation
   .ast/.asf automatically generated from VICON data using
   VICON BodyBuilder and BodyLanguage model FoxedUp or BRILLIANT.MOD
:root
   order TX TY TZ RX RY RZ
   axis XYZ
   position 0 0 0  
   orientation 0 0 0 
:bonedata
  begin
     id 1 
     name lhipjoint
     direction 0.567725 -0.736092 0.368589 
     length 2.42353 
     axis 0 0 0  XYZ
  end
  begin
     id 2 
     name lfemur
     direction 0.34202 -0.939693 0  
     length 7.24894  
     axis 0 0 20  XYZ
    dof rx ry rz
    limits (-160.0 20.0)
           (-70.0 70.0)
           (-60.0 70.0)
  end
  begin
     id 3 
     name ltibia
     direction 0.34202 -0.939693 0   
     length 7.6997   
     axis 0 0 20   XYZ
    dof rx
    limits (-10.0 170.0)
  end
  begin
     id 4 
     name lfoot
     direction 0.100767 -0.276854 0.955614   
     length 2.37556   
     axis -90 7.62852e-016 20   XYZ
    dof rx rz
    limits (-45.0 90.0)
           (-70.0 20.0)
  end
  begin
     id 5 
     name ltoes
     direction 1.53592e-011 -4.21894e-011 1   
     length 1.18363   
     axis -90 7.62852e-016 20   XYZ
    dof rx
    limits (-90.0 20.0)
  end
  begin
     id 6 
     name rhipjoint
     direction -0.556459 -0.742938 0.372017   
     length 2.4012  
     axis 0 0 0  XYZ 
  end
  begin
     id 7 
     name rfemur
     direction -0.34202 -0.939693 0   
     length 7.5119   
     axis 0 0 -20   XYZ
    dof rx ry rz
    limits (-160.0 20.0)
           (-70.0 70.0)
           (-70.0 60.0)
  end
  begin
     id 8 
     name rtibia
     direction -0.34202 -0.939693 0   
     length 7.50155   
     axis 0 0 -20   XYZ
    dof rx
    limits (-10.0 170.0)
 end
 begin
     id 9 
     name rfoot
     direction -0.118427 -0.325376 0.938139   
     length 2.32487  
     axis -90 -7.62852e-016 -20   XYZ
    dof rx rz
    limits (-45.0 90.0)
           (-20.0 70.0)
  end
  begin
     id 10 
     name rtoes
     direction -1.53525e-011 -4.21868e-011 1   
     length 1.15233   
     axis -90 -7.62852e-016 -20   XYZ
    dof rx
    limits (-90.0 20.0)
  end
  begin
     id 11 
     name lowerback
     direction 0.0287568 0.999577 -0.00434502   
     length 2.15243   
     axis 0 0 0   XYZ
    dof rx ry rz
    limits (-20.0 45.0)
           (-30.0 30.0)
           (-30.0 30.0)
  end
  begin
     id 12 
     name upperback
     direction 0.0294009 0.99956 0.00404628   
     length 2.15427   
     axis 0 0 0   XYZ
    dof rx ry rz
    limits (-20.0 45.0)
           (-30.0 30.0)
           (-30.0 30.0)
  end
  begin
     id 13 
     name thorax
     direction 0.0151014 0.999868 0.0059419   
     length 2.14898   
     axis 0 0 0   XYZ
    dof rx ry rz
    limits (-20.0 45.0)
           (-30.0 30.0)
           (-30.0 30.0)
  end
  begin
     id 14 
     name lowerneck
     direction -0.0249197 0.989906 0.139515   
     length 1.6861   
     axis 0 0 0   XYZ
    dof rx ry rz
    limits (-20.0 45.0)
           (-30.0 30.0)
           (-30.0 30.0)
  end
  begin
     id 15 
     name upperneck
     direction 0.0438463 0.988795 -0.142693   
     length 1.71276   
     axis 0 0 0   XYZ
    dof rx ry rz
    limits (-20.0 45.0)
           (-30.0 30.0)
           (-30.0 30.0)
  end
  begin
     id 16
     name head
     direction 0.0148499 0.997845 -0.0639186  
     length 1.7209  
     axis 0 0 0   XYZ
    dof rx ry rz
    limits (-20.0 45.0)
           (-30.0 30.0)
           (-30.0 30.0)
  end
  begin
     id 17 
     name lclavicle
     direction 0.940298 0.323464 -0.105876  
     length 3.9048  
     axis 0 0 0   XYZ
    dof ry rz
    limits (-20.0 10.0)
           (0.0 20.0)
  end
  begin
     id 18 
     name lhumerus
     direction 1 -4.48954e-011 -4.9675e-028   
     length 4.6851   
     axis 180 -30 -90   XYZ
    dof rx ry rz
    limits (-60.0 90.0)
           (-90.0 90.0)
           (-90.0 90.0)
  end
  begin
     id 19
     name lradius
     direction 1 -4.48992e-011 -1.03359e-026   
     length 3.39626   
     axis 180 -30 -90   XYZ
    dof rx
    limits (-10.0 170.0)
  end
  begin
     id 20
     name lwrist
     direction 1 -4.48906e-011 -1.67336e-026   
     length 1.69813   
     axis 9.90442e-015 90 90   XYZ
    dof ry
    limits (-180.0 0.0)
 end
  begin
     id 21 
     name lhand
     direction 1 -4.49006e-011 -3.34673e-026   
     length 0.486078   
     axis 2.1355e-014 90 90   XYZ
    dof rx rz
    limits (-90.0 90.0)
           (-45.0 45.0)
  end
  begin
     id 22 
     name lfingers
     direction 1 -4.48992e-011 -6.69345e-026   
     length 0.391889   
     axis 4.27099e-014 90 90   XYZ
    dof rx
    limits (0.0 90.0)
  end
  begin
     id 23
     name lthumb
     direction 0.707107 -6.34926e-011 0.707107   
     length 0.562676   
     axis -90 45 2.85299e-015   XYZ
    dof rx rz
    limits (-45.0 45.0)
           (-45.0 45.0)
  end
  begin
     id 24 
     name rclavicle
     direction -0.882459 0.414895 -0.221648   
     length 3.44646  
     axis 0 0 0   XYZ 
    dof ry rz
    limits (-10.0 20.0)
           (-20.0 0.0)
  end
  begin
     id 25 
     name rhumerus
     direction -1 -4.48962e-011 -2.37984e-027  
     length 5.55576   
     axis 180 30 90   XYZ
    dof rx ry rz
    limits (-90.0 60.0)
           (-90.0 90.0)
           (-90.0 90.0)
  end
  begin
     id 26 
     name rradius
     direction -1 -4.48982e-011 -6.86791e-027   
     length 3.32774   
     axis 180 30 90   XYZ
    dof rx
    limits (-10.0 170.0)
  end
  begin
     id 27 
     name rwrist
     direction -1 -4.48961e-011 -1.67336e-026   
     length 1.66387   
     axis 9.90442e-015 -90 -90   XYZ
    dof ry
    limits (-180.0 0.0)
  end
  begin
     id 28
     name rhand
     direction -1 -4.4897e-011 -3.34673e-026   
     length 0.507628   
     axis 2.1355e-014 -90 -90   XYZ
    dof rx rz
    limits (-90.0 90.0)
           (-45.0 45.0)
  end
  begin
     id 29
     name rfingers
     direction -1 -4.48854e-011 -6.69345e-026   
     length 0.409263   
     axis 4.27099e-014 -90 -90   XYZ
    dof rx
    limits (0.0 90.0)
  end
  begin
     id 30
     name rthumb
     direction -0.707107 -6.34913e-011 0.707107   
     length 0.587622   
     axis -90 -45 -2.85299e-015   XYZ
    dof rx rz
    limits (-45.0 45.0)
           (-45.0 45.0)
  end
:hierarchy
  begin
    root lhipjoint rhipjoint lowerback
    lhipjoint lfemur
    lfemur ltibia
    ltibia lfoot
    lfoot ltoes
    rhipjoint rfemur
    rfemur rtibia
    rtibia rfoot
    rfoot rtoes
    lowerback upperback
    upperback thorax
    thorax lowerneck lclavicle rclavicle
    lowerneck upperneck
    upperneck head
    lclavicle lhumerus
    lhumerus lradius
    lradius lwrist
    lwrist lhand lthumb
    lhand lfingers
    rclavicle rhumerus
    rhumerus rradius
    rradius rwrist
    rwrist rhand rthumb
    rhand rfingers
  end

#!OML:ASF E:\motion texture\Top Level 1\Subject 1\Session 1\male.ASF
:FULLY-SPECIFIED
:DEGREES
102
root 42.8259 17.8528 6.29954 123.148 -84.3569 -113.673
lowerback -5.99707 -1.19113 4.19937
upperback -3.43487 -1.95786 3.36571
thorax -0.200426 -1.07002 0.999214
lowerneck -18.3332 -8.53474 -10.7231
upperneck 14.9721 -10.7815 9.74133
head 8.81991 -4.784 3.57161
rclavicle -6.87515e-015 3.18055e-015
rhumerus -31.1439 26.6885 -97.644
rradius 59.1552
rwrist -25.2406
rhand 19.4964 -39.7393
rfingers 7.12502
rthumb 44.0657 -63.5977
lclavicle -6.87515e-015 3.18055e-015
lhumerus -34.531 -19.5997 105.483
lradius 58.3075
lwrist 18.3705
lhand -5.01273 34.2265
lfingers 7.12502
lthumb 20.7812 63.1336
rfemur -10.6223 2.73871 26.9433
rtibia 13.2069
rfoot -8.10207 -13.4799
rtoes 15.0944
lfemur -8.29092 -4.46914 -12.2633
ltibia 9.97107
lfoot -8.54243 5.06322
ltoes 3.97633
103
root 42.8284 17.853 6.29805 123.359 -84.3559 -113.876
lowerback -5.96665 -1.23015 4.19874
upperback -3.46918 -2.00746 3.38245
thorax -0.252785 -1.09626 1.01568
lowerneck -18.1755 -8.54064 -10.8021
upperneck 14.983 -10.786 9.73616
head 8.80069 -4.79634 3.58604
rclavicle 2.24704e-014 -4.69132e-014
rhumerus -31.2599 26.7678 -97.6514
rradius 59.1491
rwrist -25.311
rhand 19.5168 -39.7273
rfingers 7.12502
rthumb 44.0847 -63.5785
lclavicle 2.24704e-014 -4.69132e-014
lhumerus -34.6384 -19.5931 105.569
lradius 58.3526
lwrist 18.3345
lhand -5.04793 34.2766
lfingers 7.12502
lthumb 20.7474 63.1875
rfemur -10.6508 2.74203 26.9398
rtibia 13.2255
rfoot -8.10113 -13.4645
rtoes 15.1087
lfemur -8.30836 -4.46825 -12.2656
ltibia 9.97382
lfoot -8.537 5.08028
ltoes 3.96507
104
root 42.8308 17.8533 6.29652 123.577 -84.3545 -114.085
lowerback -5.93436 -1.26857 4.19605
upperback -3.50401 -2.056 3.39932
thorax -0.306605 -1.12196 1.03362
lowerneck -18.027 -8.54519 -10.877
upperneck 15.0003 -10.7887 9.72642
head 8.78453 -4.80768 3.59828
rclavicle -3.98936e-014 3.53837e-014
rhumerus -31.3716 26.843 -97.6592
rradius 59.1437
rwrist -25.364
rhand 19.5251 -39.7049
rfingers 7.12502
rthumb 44.0924 -63.5533
lclavicle -3.98936e-014 3.53837e-014
lhumerus -34.7384 -19.5835 105.653
lradius 58.3915
lwrist 18.2964
lhand -5.07264 34.3375
lfingers 7.12502
lthumb 20.7236 63.251
rfemur -10.6796 2.74626 26.9363
rtibia 13.2443
rfoot -8.09976 -13.4495
rtoes 15.1213
lfemur -8.32526 -4.46816 -12.2679
ltibia 9.97657
lfoot -8.53214 5.09872
ltoes 3.96323
105
root 42.8331 17.8535 6.29498 123.794 -84.3529 -114.294
lowerback -5.89876 -1.3065 4.19148
upperback -3.5399 -2.10354 3.4168
thorax -0.363219 -1.14717 1.05351
lowerneck -17.8882 -8.54809 -10.9485
upperneck 15.0248 -10.789 9.71285
head 8.77179 -4.81773 3.60883
rclavicle 1.43032e-014 -1.35174e-014
rhumerus -31.4797 26.914 -97.667
rradius 59.1395
rwrist -25.4045
rhand 19.5171 -39.6655
rfingers 7.12502
rthumb 44.085 -63.5166
lclavicle 1.43032e-014 -1.35174e-014
lhumerus -34.8321 -19.5703 105.736
lradius 58.4249
lwrist 18.257
lhand -5.09314 34.3959
lfingers 7.12502
lthumb 20.7039 63.3115
rfemur -10.7079 2.74997 26.9333
rtibia 13.2632
rfoot -8.09882 -13.434
rtoes 15.1327
lfemur -8.34119 -4.46752 -12.2701
ltibia 9.97766
lfoot -8.52499 5.11803
ltoes 3.95631
106
root 42.8354 17.8537 6.29339 124.018 -84.3505 -114.51
lowerback -5.8662 -1.34413 4.18625
upperback -3.57375 -2.1509 3.43385
thorax -0.415987 -1.17219 1.07328
lowerneck -17.7566 -8.54911 -11.0167
upperneck 15.0521 -10.7871 9.69803
head 8.76073 -4.82642 3.61856
rclavicle 1.54369e-015 -1.51076e-014
rhumerus -31.5797 26.9812 -97.6751
rradius 59.1363
rwrist -25.4282
rhand 19.5005 -39.6295
rfingers 7.12502
rthumb 44.0694 -63.4865
lclavicle 1.54369e-015 -1.51076e-014
lhumerus -34.9154 -19.5537 105.814
lradius 58.4527
lwrist 18.2174
lhand -5.11087 34.4572
lfingers 7.12502
lthumb 20.6869 63.3747
rfemur -10.7362 2.75465 26.9307
rtibia 13.2828
rfoot -8.09808 -13.4185
rtoes 15.1447
lfemur -8.35612 -4.46732 -12.2719
ltibia 9.97806
lfoot -8.51954 5.1377
ltoes 3.94935
107
root 42.8375 17.8539 6.29178 124.245 -84.3476 -114.728
lowerback -5.83676 -1.38102 4.18124
upperback -3.60478 -2.19754 3.44981
thorax -0.464131 -1.19672 1.09176
lowerneck -17.6357 -8.54831 -11.081
upperneck 15.0849 -10.783 9.68211
head 8.75288 -4.83359 3.62737
rclavicle 1.61575e-014 -1.11319e-014
rhumerus -31.6699 27.0445 -97.6837
rradius 59.1315
rwrist -25.4368
rhand 19.4558 -39.57
rfingers 7.12502
rthumb 44.0278 -63.4425
lclavicle 1.61575e-014 -1.11319e-014
lhumerus -34.987 -19.5368 105.887
lradius 58.4745
lwrist 18.1777
lhand -5.12591 34.5122
lfingers 7.12502
lthumb 20.6724 63.4313
rfemur -10.7642 2.75887 26.9287
rtibia 13.3017
rfoot -8.09689 -13.4022
rtoes 15.1556
lfemur -8.37035 -4.46702 -12.2733
ltibia 9.97822
lfoot -8.51489 5.15776
ltoes 3.94362
108
root 42.8396 17.8541 6.29014 124.475 -84.3443 -114.949
lowerback -5.81037 -1.41715 4.1759
upperback -3.63327 -2.24339 3.46478
thorax -0.507949 -1.22074 1.10935
lowerneck -17.5248 -8.5471 -11.1398
upperneck 15.1216 -10.7785 9.66312
head 8.7475 -4.84023 3.63405
rclavicle -1.00635e-014 2.70347e-014
rhumerus -31.7518 27.1018 -97.6922
rradius 59.1274
rwrist -25.4309
rhand 19.398 -39.5045
rfingers 7.12502
rthumb 43.9739 -63.3971
lclavicle -1.00635e-014 2.70347e-014
lhumerus -35.0484 -19.5192 105.954
lradius 58.4912
lwrist 18.138
lhand -5.13877 34.5664
lfingers 7.12502
lthumb 20.6601 63.4868
rfemur -10.7916 2.76292 26.927
rtibia 13.3206
rfoot -8.09595 -13.385
rtoes 15.1683
lfemur -8.38359 -4.46688 -12.2744
ltibia 9.97787
lfoot -8.51096 5.17801
ltoes 3.93875
109
root 42.8415 17.8542 6.28848 124.708 -84.3401 -115.174
lowerback -5.78428 -1.45189 4.17084
upperback -3.65913 -2.28745 3.47866
thorax -0.54888 -1.24377 1.12575
lowerneck -17.4273 -8.54603 -11.1945
upperneck 15.1637 -10.7742 9.64323
head 8.74607 -4.84635 3.63937
rclavicle 1.33838e-014 -4.01545e-014
rhumerus -31.8234 27.1512 -97.6987
rradius 59.1239
rwrist -25.414
rhand 19.3318 -39.4407
rfingers 7.12502
rthumb 43.9121 -63.3562
lclavicle 1.33838e-014 -4.01545e-014
lhumerus -35.0986 -19.5028 106.017
lradius 58.5027
lwrist 18.0991
lhand -5.14792 34.6145
lfingers 7.12502
lthumb 20.6513 63.5358
rfemur -10.8186 2.76706 26.9261
rtibia 13.3394
rfoot -8.09441 -13.3677
rtoes 15.1773
lfemur -8.39594 -4.46654 -12.275
ltibia 9.97676
lfoot -8.50568 5.19998
ltoes 3.93411
110
root 42.8434 17.8544 6.2868 124.94 -84.3352 -115.398
lowerback -5.75893 -1.48578 4.1656
upperback -3.68393 -2.33041 3.4918
thorax -0.588295 -1.26619 1.14156
lowerneck -17.3382 -8.54411 -11.2455
upperneck 15.211 -10.769 9.62164
head 8.74741 -4.85173 3.64343
rclavicle 6.88913e-015 7.95139e-015
rhumerus -31.8884 27.1936 -97.7055
rradius 59.1194
rwrist -25.3824
rhand 19.2695 -39.3633
rfingers 7.12502
rthumb 43.854 -63.3005
lclavicle 6.88913e-015 7.95139e-015
lhumerus -35.1412 -19.4853 106.075
lradius 58.5101
lwrist 18.0611
lhand -5.1562 34.6589
lfingers 7.12502
lthumb 20.6433 63.5811
rfemur -10.8446 2.77164 26.9258
rtibia 13.3576
rfoot -8.09333 -13.3495
rtoes 15.1883
lfemur -8.40753 -4.4659 -12.2749
ltibia 9.97539
lfoot -8.50164 5.22139
ltoes 3.92523
111
root 42.8452 17.8545 6.28508 125.182 -84.3296 -115.631
lowerback -5.7326 -1.51852 4.1596
upperback -3.70824 -2.37174 3.50436
thorax -0.627699 -1.28777 1.15733
lowerneck -17.258 -8.54263 -11.2919
upperneck 15.2628 -10.7644 9.5968
head 8.75148 -4.85714 3.64529
rclavicle 9.43606e-015 -3.22031e-014
rhumerus -31.9473 27.23 -97.7123
rradius 59.1141
rwrist -25.3449
rhand 19.1961 -39.2882
rfingers 7.12502
rthumb 43.7855 -63.2506
lclavicle 9.43606e-015 -3.22031e-014
lhumerus -35.177 -19.4664 106.129
lradius 58.5135
lwrist 18.0234
lhand -5.16426 34.7015
lfingers 7.12502
lthumb 20.6356 63.6246
rfemur -10.8702 2.77613 26.9259
rtibia 13.3756
rfoot -8.09204 -13.33
rtoes 15.1996
lfemur -8.41786 -4.46519 -12.2746
ltibia 9.97314
lfoot -8.49724 5.2447
ltoes 3.91843
112
root 42.8469 17.8546 6.28334 125.429 -84.3234 -115.871
lowerback -5.70248 -1.55046 4.15223
upperback -3.73416 -2.41161 3.51712
thorax -0.670777 -1.30866 1.17437
lowerneck -17.1876 -8.53879 -11.3354
upperneck 15.3252 -10.7565 9.56841
head 8.76004 -4.86085 3.64574
rclavicle 2.50344e-015 -4.29375e-014
rhumerus -32.0062 27.2603 -97.7199
rradius 59.1099
rwrist -25.2977
rhand 19.106 -39.2179
rfingers 7.12502
rthumb 43.7014 -63.2112
lclavicle 2.50344e-015 -4.29375e-014
lhumerus -35.2093 -19.4435 106.182
lradius 58.5134
lwrist 17.9845
lhand -5.17071 34.7403
lfingers 7.12502
lthumb 20.6294 63.6641
rfemur -10.895 2.7806 26.9263
rtibia 13.3933
rfoot -8.09016 -13.3107
rtoes 15.2084
lfemur -8.42699 -4.46446 -12.2742
ltibia 9.97048
lfoot -8.49404 5.26766
ltoes 3.91457
113
root 42.8485 17.8547 6.28158 125.68 -84.3159 -116.114
lowerback -5.67199 -1.58099 4.14486
upperback -3.75894 -2.44962 3.52932
thorax -0.712855 -1.32857 1.19098
lowerneck -17.1267 -8.53719 -11.3761
upperneck 15.3922 -10.7517 9.53905
head 8.77202 -4.8656 3.64466
rclavicle -2.17421e-014 3.89618e-014
rhumerus -32.0585 27.2833 -97.7262
rradius 59.1055
rwrist -25.2449
rhand 19.0235 -39.1369
rfingers 7.12502
rthumb 43.6243 -63.1584
lclavicle -2.17421e-014 3.89618e-014
lhumerus -35.2341 -19.4208 106.23
lradius 58.5096
lwrist 17.9466
lhand -5.17722 34.7778
lfingers 7.12502
lthumb 20.6231 63.7022
rfemur -10.9189 2.7852 26.9279
rtibia 13.4108
rfoot -8.08834 -13.2895
rtoes 15.2181
lfemur -8.43519 -4.46306 -12.2728
ltibia 9.96753
lfoot -8.49051 5.29169
ltoes 3.90957
114
root 42.8499 17.8548 6.2798 125.941 -84.308 -116.368
lowerback -5.63809 -1.61035 4.13545
upperback -3.78584 -2.48568 3.54157
thorax -0.758894 -1.34754 1.20908
lowerneck -17.0714 -8.53523 -11.415
upperneck 15.4665 -10.7464 9.50727
head 8.78712 -4.87011 3.64236
rclavicle -1.56916e-014 8.34896e-015
rhumerus -32.1103 27.2998 -97.7333
rradius 59.1
rwrist -25.1896
rhand 18.9261 -39.0573
rfingers 7.12502
rthumb 43.5334 -63.112
lclavicle -1.56916e-014 8.34896e-015
lhumerus -35.2574 -19.3951 106.278
lradius 58.5037
lwrist 17.9088
lhand -5.18657 34.816
lfingers 7.12502
lthumb 20.6141 63.7414
rfemur -10.9426 2.78935 26.9291
rtibia 13.428
rfoot -8.08614 -13.2673
rtoes 15.226
lfemur -8.44257 -4.46163 -12.272
ltibia 9.96386
lfoot -8.48621 5.31772
ltoes 3.90295
115
root 42.8513 17.8548 6.278 126.21 -84.2996 -116.629
lowerback -5.60796 -1.63846 4.12602
upperback -3.80954 -2.52038 3.55242
thorax -0.799552 -1.3657 1.22566
lowerneck -17.0241 -8.53394 -11.4499
upperneck 15.5433 -10.7423 9.47477
head 8.80437 -4.87476 3.63879
rclavicle -9.87711e-015 -2.38542e-014
rhumerus -32.1526 27.3087 -97.739
rradius 59.0923
rwrist -25.1306
rhand 18.828 -38.9743
rfingers 7.12502
rthumb 43.4418 -63.0623
lclavicle -9.87711e-015 -2.38542e-014
lhumerus -35.2712 -19.3705 106.32
lradius 58.4943
lwrist 17.8707
lhand -5.20381 34.8415
lfingers 7.12502
lthumb 20.5976 63.7687
rfemur -10.9653 2.79417 26.9304
rtibia 13.4444
rfoot -8.08393 -13.2445
rtoes 15.2362
lfemur -8.44914 -4.46028 -12.2711
ltibia 9.96007
lfoot -8.48365 5.34356
ltoes 3.89629
116
root 42.8526 17.8549 6.27617 126.48 -84.2902 -116.892
lowerback -5.57743 -1.66 4.11891
upperback -3.82763 -2.54633 3.55722
thorax -0.83492 -1.37931 1.23501
lowerneck -17.003 -8.53959 -11.4714
upperneck 15.6298 -10.7485 9.43973
head 8.82978 -4.88286 3.62984
rclavicle 8.33653e-015 -1.74931e-014
rhumerus -32.1751 27.2932 -97.7376
rradius 59.0824
rwrist -25.0716
rhand 18.7264 -38.9001
rfingers 7.12502
rthumb 43.3469 -63.0223
lclavicle 8.33653e-015 -1.74931e-014
lhumerus -35.2731 -19.3678 106.356
lradius 58.4815
lwrist 17.8345
lhand -5.21974 34.8625
lfingers 7.12502
lthumb 20.5823 63.7913
rfemur -10.9874 2.79975 26.9326
rtibia 13.4608
rfoot -8.08173 -13.2216
rtoes 15.247
lfemur -8.4545 -4.45891 -12.2695
ltibia 9.95565
lfoot -8.48064 5.37071
ltoes 3.88924
